<?xml version="1.0" encoding="UTF-8"?>
<svg viewBox="0 0 31 31" version="1.1" xmlns="http://www.w3.org/2000/svg" xmlns:xlink="http://www.w3.org/1999/xlink">
    <title>Combined Shape</title>
    <g id="SAM" stroke="none" stroke-width="1" fill="none" fill-rule="evenodd">
        <g id="SAM-Base" transform="translate(-1809, -28)" fill="#000000" fill-rule="nonzero">
            <path d="M1832.41878,43.5 C1832.41878,45.609668 1831.59811,47.5939453 1830.10802,49.0873242 C1829.35356,49.8433594 1828.90315,50.9902734 1828.90315,52.1553516 L1828.90315,52.3476562 C1828.90315,53.1267773 1828.56325,53.8277344 1828.02425,54.3108398 L1828.02425,55.8632812 C1828.02425,57.317168 1826.84142,58.5 1825.38753,58.5 L1823.62972,58.5 C1822.17583,58.5 1820.993,57.317168 1820.993,55.8632812 L1820.993,54.3108398 C1820.45399,53.8277344 1820.11409,53.1267187 1820.11409,52.3476562 L1820.11409,52.1588086 C1820.11409,50.9757422 1819.68653,49.8502148 1818.97052,49.1479687 C1816.94622,47.1628711 1816.15204,44.3021484 1816.84597,41.4955664 C1817.53772,38.6979492 1819.80302,36.4662891 1822.6171,35.8101562 C1827.74481,34.6149609 1832.41878,38.4563086 1832.41878,43.5 Z M1826.26644,54.984375 L1822.75081,54.984375 L1822.75081,55.8632813 C1822.75081,56.3479102 1823.14509,56.7421875 1823.62972,56.7421875 L1825.38753,56.7421875 C1825.87216,56.7421875 1826.26644,56.3479102 1826.26644,55.8632813 L1826.26644,54.984375 Z M1823.01624,37.5220898 C1820.83919,38.0296289 1819.087,39.7549805 1818.55233,41.9175 C1818.00929,44.1140625 1818.62563,46.347832 1820.20122,47.8929492 C1821.26294,48.9341016 1821.8719,50.4889453 1821.8719,52.1588086 L1821.8719,52.3476562 C1821.8719,52.8322852 1822.26618,53.2265625 1822.75081,53.2265625 L1826.26644,53.2265625 C1826.75106,53.2265625 1827.14534,52.8322852 1827.14534,52.3476562 L1827.14534,52.1553516 C1827.14534,50.5108008 1827.77165,48.9400195 1828.86366,47.8456641 C1830.02265,46.6841602 1830.66097,45.1408594 1830.66097,43.5 C1830.66097,39.5875781 1827.03999,36.5838281 1823.01624,37.5220898 Z M1813.96175,42.6210938 C1814.44714,42.6210938 1814.84065,43.0146094 1814.84065,43.5 C1814.84065,43.9853906 1814.44714,44.3789063 1813.96175,44.3789063 L1810.38753,44.3789063 C1809.90214,44.3789063 1809.50862,43.9853906 1809.50862,43.5 C1809.50862,43.0146094 1809.90214,42.6210938 1810.38753,42.6210938 Z M1838.62972,42.6210938 C1839.11511,42.6210938 1839.50862,43.0146094 1839.50862,43.5 C1839.50862,43.9853906 1839.11511,44.3789063 1838.62972,44.3789063 L1835.0555,44.3789063 C1834.57011,44.3789063 1834.17659,43.9853906 1834.17659,43.5 C1834.17659,43.0146094 1834.57011,42.6210938 1835.0555,42.6210938 Z M1824.50862,39.1054688 C1824.99401,39.1054688 1825.38753,39.4989844 1825.38753,39.984375 C1825.38753,40.4697656 1824.99401,40.8632813 1824.50862,40.8632813 C1824.28216,40.8632813 1824.04895,40.8909961 1823.81563,40.9456641 C1822.93989,41.1500977 1822.17899,41.8966992 1821.96448,42.7614258 C1821.84765,43.2324609 1821.37104,43.5197461 1820.89983,43.4029102 C1820.42874,43.2860156 1820.14157,42.8094141 1820.25841,42.3382617 C1820.63112,40.8352734 1821.89985,39.5877539 1823.41538,39.2340234 C1823.77931,39.1487695 1824.14733,39.1054688 1824.50862,39.1054688 Z M1815.18636,32.9348438 L1817.67231,35.4207422 C1818.01556,35.7639844 1818.01556,36.3204492 1817.67231,36.6636914 C1817.32913,37.0069336 1816.77255,37.0069336 1816.42936,36.6636914 L1813.94341,34.177793 C1813.60017,33.8345508 1813.60017,33.2780859 1813.94341,32.9348438 C1814.28665,32.5916016 1814.84317,32.5916016 1815.18636,32.9348438 Z M1835.07384,32.9348438 C1835.41708,33.2780859 1835.41708,33.8346094 1835.07384,34.177793 L1832.58788,36.6636914 C1832.24464,37.0069336 1831.68811,37.0069336 1831.34493,36.6636914 C1831.00169,36.3204492 1831.00169,35.7639258 1831.34493,35.4207422 L1833.83089,32.9348438 C1834.17419,32.5916016 1834.73071,32.5916016 1835.07384,32.9348438 Z M1824.50862,28.5 C1824.99401,28.5 1825.38753,28.8935156 1825.38753,29.3789063 L1825.38753,32.953125 C1825.38753,33.4385156 1824.99401,33.8320313 1824.50862,33.8320313 C1824.02323,33.8320313 1823.62972,33.4385156 1823.62972,32.953125 L1823.62972,29.3789063 C1823.62972,28.8935156 1824.02323,28.5 1824.50862,28.5 Z" id="Combined-Shape"></path>
        </g>
    </g>
</svg>