<?xml version="1.0" encoding="UTF-8"?>
<svg viewBox="0 0 31 30" version="1.1" xmlns="http://www.w3.org/2000/svg" xmlns:xlink="http://www.w3.org/1999/xlink">
    <title>Combined Shape</title>
    <g id="SAM" stroke="none" stroke-width="1" fill="none" fill-rule="evenodd">
        <path d="M20.4304976,8.79486328 C22.3289351,10.306582 23.4187789,12.5742188 23.4187789,15 C23.4187789,17.109375 22.5926656,19.0956445 21.1160445,20.5897852 C20.342607,21.3456445 19.9031539,22.5116602 19.9031539,23.6542969 L19.9031539,23.8476563 C19.9031539,24.3397852 19.5164937,24.7265625 19.0242476,24.7265625 L11.9929976,24.7265625 C11.5007515,24.7265625 11.1140914,24.3397852 11.1140914,23.8476563 L11.1140914,23.6542969 C11.1140914,22.494082 10.6922164,21.3632813 9.97145464,20.6425195 C7.95002886,18.6561914 7.15901323,15.8085352 7.84456011,12.9960938 C8.53016557,10.2011133 10.7976851,7.96875 13.6101851,7.31835938 C16.0359664,6.73828125 18.5145406,7.28314453 20.4304976,8.79486328 Z M4.96174761,14.1210938 C5.44754839,14.1210938 5.84065386,14.5141992 5.84065386,15 C5.84065386,15.4858008 5.44754839,15.8789062 4.96174761,15.8789062 L1.38752886,15.8789062 C0.901728074,15.8789062 0.508622605,15.4858008 0.508622605,15 C0.508622605,14.5141992 0.901728074,14.1210938 1.38752886,14.1210938 L4.96174761,14.1210938 Z M29.6297164,14.1210938 C30.1155171,14.1210938 30.5086226,14.5141992 30.5086226,15 C30.5086226,15.4858008 30.1155171,15.8789062 29.6297164,15.8789062 L26.0554976,15.8789062 C25.5696968,15.8789062 25.1765914,15.4858008 25.1765914,15 C25.1765914,14.5141992 25.5696968,14.1210938 26.0554976,14.1210938 Z M15.5086226,10.6054688 C13.344814,10.6054688 11.6937593,12.080918 11.2582906,13.8387305 C11.1415132,14.3090625 11.4290914,14.7863086 11.8994234,14.9030273 C12.3836421,15.0196289 12.8495796,14.724082 12.9645992,14.2610156 C13.2173726,13.242832 14.182646,12.3632812 15.5086226,12.3632812 C15.9944234,12.3632812 16.3875289,11.9701758 16.3875289,11.484375 C16.3875289,10.9985742 15.9944234,10.6054688 15.5086226,10.6054688 Z M6.18653276,4.43507812 L8.67219682,6.92074219 C9.01549761,7.26404297 9.01549761,7.82027344 8.67219682,8.16357422 C8.32889604,8.506875 7.77266557,8.506875 7.42936479,8.16357422 L4.94370073,5.67791016 C4.60039995,5.33460937 4.60039995,4.77837891 4.94370073,4.43507812 C5.28700151,4.09177734 5.84323198,4.09177734 6.18653276,4.43507812 Z M26.0735445,4.43507812 C26.4168453,4.7784375 26.4168453,5.33460937 26.0735445,5.67791016 L23.5878804,8.16357422 C23.2445796,8.506875 22.6883492,8.506875 22.3450484,8.16357422 C22.0017476,7.82027344 22.0017476,7.26404297 22.3450484,6.92074219 L24.8307124,4.43507812 C25.1740132,4.09177734 25.7302437,4.09177734 26.0735445,4.43507812 Z M15.5086226,0 C15.9944234,0 16.3875289,0.393105469 16.3875289,0.87890625 L16.3875289,4.453125 C16.3875289,4.93892578 15.9944234,5.33203125 15.5086226,5.33203125 C15.0228218,5.33203125 14.6297164,4.93892578 14.6297164,4.453125 L14.6297164,0.87890625 C14.6297164,0.393105469 15.0228218,0 15.5086226,0 Z M11.9929976,26.484375 L11.9929976,27.3632812 C11.9929976,28.8172266 13.175771,30 14.6297164,30 L16.3875289,30 C17.8414742,30 19.0242476,28.8172266 19.0242476,27.3632812 L19.0242476,26.484375 L11.9929976,26.484375 Z" id="Combined-Shape" fill="#000000" fill-rule="nonzero"></path>
    </g>
</svg>