<?xml version="1.0" encoding="UTF-8"?>
<svg viewBox="0 0 273 373" version="1.1" xmlns="http://www.w3.org/2000/svg" xmlns:xlink="http://www.w3.org/1999/xlink">
    <title>Shape</title>
    <g id="Page-1" stroke="none" stroke-width="1" fill="none" fill-rule="evenodd">
        <path d="M253.761,153.483 L236.095,153.483 L236.095,99.692 C236.095,44.727 191.378,0 136.416,0 C81.434,0 36.725,44.721 36.725,99.692 L36.725,153.483 L19.065,153.483 C8.901,153.483 0.666,161.722 0.666,171.882 L0.666,354.428 C0.666,364.588 8.901,372.826 19.065,372.826 L253.762,372.826 C263.905,372.826 272.161,364.588 272.161,354.428 L272.161,171.882 C272.161,161.722 263.904,153.483 253.761,153.483 Z M73.519,99.692 C73.519,65.005 101.729,36.795 136.415,36.795 C171.093,36.795 199.304,65.005 199.304,99.692 L199.304,153.483 L73.519,153.483 L73.519,99.692 Z" id="Shape" fill="#000000" fill-rule="nonzero"></path>
    </g>
</svg>