<?xml version="1.0" encoding="UTF-8"?>
<svg viewBox="0 0 36 35" version="1.1" xmlns="http://www.w3.org/2000/svg" xmlns:xlink="http://www.w3.org/1999/xlink">
    <title>Combined Shape Copy</title>
    <g id="Logos" stroke="none" stroke-width="1" fill="none" fill-rule="evenodd">
        <g id="Artboard" transform="translate(-335, -65)" fill="#000000" fill-rule="nonzero">
            <path d="M352.80279,65 C357.477204,65 361.871823,66.8203418 365.177204,70.1255859 C368.482448,73.4309668 370.30279,77.8255859 370.30279,82.5 C370.30279,87.1744141 368.482448,91.5690332 365.177204,94.8744141 C361.871823,98.1796582 357.477204,100 352.80279,100 C348.128376,100 343.733757,98.1796582 340.428376,94.8744141 C337.123132,91.5690332 335.30279,87.1744141 335.30279,82.5 C335.30279,79.3452832 336.151608,76.2527734 337.757575,73.5568164 C339.316716,70.9391992 341.541677,68.7624316 344.191901,67.2616699 C344.438405,67.1222852 344.751218,67.2088281 344.890671,67.4551953 C345.030192,67.7015625 344.943513,68.0144434 344.697145,68.1539648 C342.201686,69.5670215 340.106608,71.6167773 338.638454,74.081543 C337.127096,76.6188379 336.32818,79.5299219 336.32818,82.5 C336.32818,86.9005664 338.041813,91.0376758 341.153464,94.1493262 C344.265114,97.2609766 348.402223,98.9746094 352.80279,98.9746094 C357.203356,98.9746094 361.340466,97.2609766 364.452116,94.1493262 C367.563766,91.0376758 369.277399,86.9005664 369.277399,82.5 C369.277399,78.0994336 367.563766,73.9623242 364.452116,70.8506738 C361.340466,67.7390234 357.203356,66.0253906 352.80279,66.0253906 C350.64154,66.0253906 348.54072,66.4373242 346.558776,67.2497754 C346.296755,67.3570996 345.997341,67.2317969 345.889948,66.9697754 C345.782487,66.7077539 345.907858,66.4083398 346.16988,66.3009473 C348.275827,65.4377051 350.507487,65 352.80279,65 Z M352.80279,67.1953613 C356.890817,67.1953613 360.734118,68.7873145 363.624831,71.677959 C366.515475,74.5686719 368.107429,78.4119727 368.107429,82.5 C368.107429,86.5880273 366.515475,90.4313281 363.624831,93.322041 C360.734118,96.2126855 356.890817,97.8046387 352.80279,97.8046387 C351.024968,97.8046387 349.282829,97.5024219 347.624704,96.9063281 C347.358239,96.8105566 347.21988,96.5168848 347.315651,96.2504883 C347.411423,95.9839551 347.705095,95.8456641 347.971559,95.9414355 C349.518122,96.497334 351.143571,96.779248 352.80279,96.779248 C360.676354,96.779248 367.082038,90.3735645 367.082038,82.5 C367.082038,74.6264355 360.676354,68.220752 352.80279,68.220752 C344.929225,68.220752 338.523542,74.6264355 338.523542,82.5 C338.523542,87.7407715 341.387116,92.5519727 345.996794,95.0561133 C346.245554,95.1912598 346.337702,95.5025 346.202555,95.7513281 C346.067409,96.0000879 345.756169,96.0922363 345.507341,95.9570898 C340.567077,93.2734375 337.498151,88.1169531 337.498151,82.5 C337.498151,78.4119727 339.090104,74.5686719 341.980749,71.677959 C344.871462,68.7873145 348.714763,67.1953613 352.80279,67.1953613 Z M354.558292,73.2867833 L354.670761,73.5994021 L356.943048,79.9177833 L359.915181,79.9184402 L359.915181,82.2814762 L357.793048,82.2807833 L358.198048,83.4057833 L359.915181,83.4058716 L359.915181,85.7689076 L359.048048,85.7687833 L360.548947,89.9384022 L360.776532,90.5709978 L357.150741,90.5709978 L357.040763,90.2527554 L355.491048,85.7687833 L350.113048,85.7687833 L348.564815,90.2527591 L348.454836,90.5709978 L344.829048,90.5709978 L345.056633,89.9384022 L346.556048,85.7687833 L345.690398,85.7689076 L345.690398,83.4058716 L347.406048,83.4057833 L347.811048,82.2807833 L345.690398,82.2814762 L345.690398,79.9184402 L348.661048,79.9177833 L350.934819,73.5994021 L351.047288,73.2867833 L354.558292,73.2867833 Z M354.285048,82.2807833 L351.319048,82.2807833 L350.930048,83.4057833 L354.674048,83.4057833 L354.285048,82.2807833 Z M352.802173,77.9892249 L352.135048,79.9177833 L353.469048,79.9177833 L352.802173,77.9892249 Z" id="Combined-Shape-Copy"></path>
        </g>
    </g>
</svg>