<?xml version="1.0" encoding="UTF-8"?>
<svg viewBox="0 0 416 384" version="1.1" xmlns="http://www.w3.org/2000/svg" xmlns:xlink="http://www.w3.org/1999/xlink">
    <title>Combined Shape</title>
    <g id="Page-1" stroke="none" stroke-width="1" fill="none" fill-rule="evenodd">
        <path d="M408,0 C412.418278,0 416,3.581722 416,8 L416,344 C416,348.418278 412.418278,352 408,352 L392,352 L392,376 C392,380.418278 388.418278,384 384,384 L304,384 C299.581722,384 296,380.418278 296,376 L296,352 L120,352 L120,376 C120,380.418278 116.418278,384 112,384 L32,384 C27.581722,384 24,380.418278 24,376 L24,352 L8,352 C3.581722,352 0,348.418278 0,344 L0,8 C0,3.581722 3.581722,0 8,0 Z M104,352 L40,352 L40,368 L104,368 L104,352 Z M376,352 L312,352 L312,368 L376,368 L376,352 Z M400,16 L16,16 L16,104 L32,104 L32,40 C32,35.581722 35.581722,32 40,32 L376,32 C380.418278,32 384,35.581722 384,40 L384,312 C384,316.418278 380.418278,320 376,320 L40,320 C35.581722,320 32,316.418278 32,312 L32,248 L16,248 L16,336 L400,336 L400,16 Z M368,48 L48,48 L48,104 L72,104 C76.418278,104 80,107.581722 80,112 L80,144 C80,148.418278 76.418278,152 72,152 L48,152 L48,200 L72,200 C76.418278,200 80,203.581722 80,208 L80,240 C80,244.418278 76.418278,248 72,248 L48,248 L48,304 L368,304 L368,272 L344,272 C339.581722,272 336,268.418278 336,264 L336,88 C336,83.581722 339.581722,80 344,80 L368,80 L368,48 Z M128.070725,122.714263 C153.49084,84.6198052 202.279882,69.7855856 244.602592,87.2829607 C286.925303,104.780336 310.995348,149.73651 302.09352,194.660083 C293.191693,239.583657 253.797038,271.963988 208,272.00003 C182.531556,272.020027 158.098922,261.918903 140.08,243.92 C107.6786,211.554598 102.65061,160.808721 128.070725,122.714263 Z M368,96 L352,96 L352,256 L368,256 L368,96 Z M235.76,215.12 C229.856252,219.234098 223.103054,221.968187 216,223.12 L216,256 C231.708502,254.400033 246.569101,248.098916 258.64,237.92 Z M180.24,215.12 L157.36,237.44 C169.479611,247.474565 184.335694,253.634404 200,255.12 L200,223.12 C192.896946,221.968187 186.143748,219.234098 180.24,215.12 Z M64,216 L16,216 L16,232 L64,232 L64,216 Z M160.72,184 L128.4,184 C129.839747,199.646725 135.943111,214.501031 145.92,226.64 L168.72,203.76 C164.605902,197.856252 161.871813,191.103054 160.72,184 Z M287.52,184 L255.52,184 C254.368187,191.103054 251.634098,197.856252 247.52,203.76 L270.179,226.418 L270.494358,226.030056 C279.989757,214.194783 285.874091,199.873552 287.442717,184.781312 L287.52,184 Z M208,144 C190.326888,144 176,158.326888 176,176 C176,193.673112 190.326888,208 208,208 C225.673112,208 240,193.673112 240,176 C240,158.326888 225.673112,144 208,144 Z M32,152 L16,152 L16,200 L32,200 L32,152 Z M146,125.36 C136.192553,137.561937 130.233529,152.403807 128.88,168 L160.88,168 C162.031813,160.896946 164.765902,154.143748 168.88,148.24 Z M270.88,125.36 L248,148.24 C252.114098,154.143748 254.848187,160.896946 256,168 L288,168 C286.646471,152.403807 280.687447,137.561937 270.88,125.36 Z M216,96.72 L216,128.72 C223.103054,129.871813 229.856252,132.605902 235.76,136.72 L258.64,114.32 C246.495425,104.339753 231.648368,98.2115123 216,96.72 Z M200,96.4 C184.369078,97.8455745 169.523767,103.91739 157.36,113.84 L180.24,136.72 C186.143748,132.605902 192.896946,129.871813 200,128.72 Z M64,120 L16,120 L16,136 L64,136 L64,120 Z" id="Combined-Shape" fill="#000000" fill-rule="nonzero"></path>
    </g>
</svg>